<svg width="48" height="48" viewBox="0 0 48 48" fill="none" xmlns="http://www.w3.org/2000/svg">
<path fill-rule="evenodd" clip-rule="evenodd" d="M17.334 18.834C16.6556 18.834 15.9838 18.9676 15.3571 19.2272C14.7303 19.4869 14.1608 19.8674 13.6811 20.3471C13.2014 20.8268 12.8209 21.3963 12.5612 22.0231C12.3016 22.6498 12.168 23.3216 12.168 24C12.168 24.6784 12.3016 25.3502 12.5612 25.9769C12.8209 26.6037 13.2014 27.1732 13.6811 27.6529C14.1608 28.1326 14.7303 28.5131 15.3571 28.7728C15.9838 29.0324 16.6556 29.166 17.334 29.166H22.5V18.834H17.334ZM22.5 15.834H17.334C15.9636 15.834 14.6494 15.2896 13.6804 14.3206C12.7114 13.3516 12.167 12.0374 12.167 10.667C12.167 9.29663 12.7114 7.98238 13.6804 7.01338C14.6494 6.04438 15.9636 5.5 17.334 5.5H22.5V15.834ZM25.5 5.5V15.834H30.666C32.0188 15.8074 33.3072 15.2513 34.2544 14.2852C35.2017 13.3191 35.7323 12.02 35.7323 10.667C35.7323 9.31397 35.2017 8.0149 34.2544 7.04879C33.3072 6.08269 32.0188 5.52662 30.666 5.5H25.5ZM30.666 18.832C29.31 18.8318 28.0083 19.3648 27.0418 20.316C26.0753 21.2671 25.5215 22.5602 25.5 23.916V24.082C25.5166 25.1 25.8336 26.0904 26.4112 26.9288C26.9888 27.7673 27.8013 28.4163 28.7466 28.7945C29.6919 29.1726 30.7278 29.263 31.7243 29.0543C32.7209 28.8456 33.6335 28.347 34.3476 27.6213C35.0617 26.8956 35.5454 25.9751 35.738 24.9753C35.9306 23.9756 35.8236 22.9412 35.4302 22.0021C35.0369 21.0631 34.3748 20.2612 33.5272 19.6971C32.6795 19.1331 31.6841 18.8321 30.666 18.832ZM17.334 32.166C16.3118 32.1656 15.3124 32.4684 14.4623 33.036C13.6121 33.6036 12.9494 34.4106 12.558 35.3549C12.1665 36.2992 12.0639 37.3384 12.2631 38.341C12.4622 39.3436 12.9543 40.2647 13.677 40.9876C14.3996 41.7106 15.3205 42.203 16.323 42.4025C17.3256 42.6021 18.3648 42.4999 19.3092 42.1088C20.2537 41.7177 21.0609 41.0553 21.6289 40.2054C22.1969 39.3555 22.5 38.3562 22.5 37.334V32.166H17.334Z" fill="#E0E0E0"/>
</svg>
