<svg width="48" height="49" viewBox="0 0 48 49" fill="none" xmlns="http://www.w3.org/2000/svg">
<path fill-rule="evenodd" clip-rule="evenodd" d="M13.424 8.18995C20.4606 7.56103 27.5393 7.56103 34.576 8.18995L37.612 8.46195C39.0817 8.59319 40.4643 9.21611 41.5363 10.2301C42.6083 11.244 43.3072 12.5898 43.52 14.05C44.5076 20.8141 44.5076 27.6858 43.52 34.45C43.3068 35.9097 42.6077 37.2551 41.5357 38.2686C40.4638 39.2822 39.0814 39.9048 37.612 40.036L34.576 40.308C27.5393 40.9369 20.4606 40.9369 13.424 40.308L10.388 40.036C8.91853 39.9048 7.53619 39.2822 6.4642 38.2686C5.39222 37.2551 4.69317 35.9097 4.47997 34.45C3.49235 27.6858 3.49235 20.8141 4.47997 14.05C4.69276 12.5898 5.39162 11.244 6.46365 10.2301C7.53567 9.21611 8.91824 8.59319 10.388 8.46195L13.424 8.18995ZM11.712 13.93C11.4835 13.8067 11.2269 13.7449 10.9674 13.7506C10.7079 13.7562 10.4542 13.8291 10.2313 13.9621C10.0084 14.0951 9.82381 14.2837 9.69562 14.5095C9.56743 14.7352 9.50001 14.9904 9.49997 15.25V34.25C9.49997 34.6478 9.65801 35.0293 9.93931 35.3106C10.2206 35.5919 10.6021 35.75 11 35.75C11.3978 35.75 11.7793 35.5919 12.0606 35.3106C12.3419 35.0293 12.5 34.6478 12.5 34.25V17.762L23.288 23.57C23.732 23.81 24.268 23.81 24.712 23.57L35.5 17.762V34.25C35.5 34.6478 35.658 35.0293 35.9393 35.3106C36.2206 35.5919 36.6021 35.75 37 35.75C37.3978 35.75 37.7793 35.5919 38.0606 35.3106C38.3419 35.0293 38.5 34.6478 38.5 34.25V15.25C38.4999 14.9904 38.4325 14.7352 38.3043 14.5095C38.1761 14.2837 37.9915 14.0951 37.7686 13.9621C37.5457 13.8291 37.2921 13.7562 37.0325 13.7506C36.773 13.7449 36.5165 13.8067 36.288 13.93L24 20.546L11.712 13.93Z" fill="#E0E0E0"/>
</svg>
