<svg width="49" height="49" viewBox="0 0 49 49" fill="none" xmlns="http://www.w3.org/2000/svg">
<rect x="0.5" y="0.5" width="48" height="48" rx="24" stroke="#E0E0E0"/>
<path d="M24.6667 14.6667C25.1087 14.6667 25.5326 14.4911 25.8452 14.1785C26.1577 13.866 26.3333 13.442 26.3333 13V9.66667C26.3333 9.22464 26.1577 8.80072 25.8452 8.48816C25.5326 8.17559 25.1087 8 24.6667 8C24.2246 8 23.8007 8.17559 23.4882 8.48816C23.1756 8.80072 23 9.22464 23 9.66667V13C23 13.442 23.1756 13.866 23.4882 14.1785C23.8007 14.4911 24.2246 14.6667 24.6667 14.6667ZM39.6667 23H36.3333C35.8913 23 35.4674 23.1756 35.1548 23.4882C34.8423 23.8007 34.6667 24.2246 34.6667 24.6667C34.6667 25.1087 34.8423 25.5326 35.1548 25.8452C35.4674 26.1577 35.8913 26.3333 36.3333 26.3333H39.6667C40.1087 26.3333 40.5326 26.1577 40.8452 25.8452C41.1577 25.5326 41.3333 25.1087 41.3333 24.6667C41.3333 24.2246 41.1577 23.8007 40.8452 23.4882C40.5326 23.1756 40.1087 23 39.6667 23ZM14.6667 24.6667C14.6667 24.2246 14.4911 23.8007 14.1785 23.4882C13.866 23.1756 13.442 23 13 23H9.66667C9.22464 23 8.80072 23.1756 8.48816 23.4882C8.17559 23.8007 8 24.2246 8 24.6667C8 25.1087 8.17559 25.5326 8.48816 25.8452C8.80072 26.1577 9.22464 26.3333 9.66667 26.3333H13C13.442 26.3333 13.866 26.1577 14.1785 25.8452C14.4911 25.5326 14.6667 25.1087 14.6667 24.6667ZM15.0333 13C14.7084 12.6928 14.2748 12.5272 13.8279 12.5397C13.3809 12.5522 12.9572 12.7418 12.65 13.0667C12.3428 13.3916 12.1772 13.8252 12.1897 14.2721C12.2022 14.7191 12.3918 15.1428 12.7167 15.45L15.1167 17.7667C15.2777 17.9222 15.4685 18.0437 15.6775 18.1238C15.8865 18.204 16.1096 18.2413 16.3333 18.2333C16.5578 18.2325 16.7799 18.1863 16.9861 18.0975C17.1923 18.0087 17.3784 17.8792 17.5333 17.7167C17.8438 17.4044 18.018 16.982 18.018 16.5417C18.018 16.1014 17.8438 15.6789 17.5333 15.3667L15.0333 13ZM33 18.2333C33.4291 18.2316 33.841 18.0645 34.15 17.7667L36.55 15.45C36.8428 15.1441 37.0081 14.7382 37.0125 14.3148C37.0169 13.8914 36.8599 13.4822 36.5735 13.1703C36.2871 12.8584 35.8927 12.6672 35.4704 12.6356C35.0481 12.604 34.6297 12.7343 34.3 13L31.9 15.3667C31.5896 15.6789 31.4153 16.1014 31.4153 16.5417C31.4153 16.982 31.5896 17.4044 31.9 17.7167C32.1886 18.0212 32.5814 18.2057 33 18.2333ZM24.6667 34.6667C24.2246 34.6667 23.8007 34.8423 23.4882 35.1548C23.1756 35.4674 23 35.8913 23 36.3333V39.6667C23 40.1087 23.1756 40.5326 23.4882 40.8452C23.8007 41.1577 24.2246 41.3333 24.6667 41.3333C25.1087 41.3333 25.5326 41.1577 25.8452 40.8452C26.1577 40.5326 26.3333 40.1087 26.3333 39.6667V36.3333C26.3333 35.8913 26.1577 35.4674 25.8452 35.1548C25.5326 34.8423 25.1087 34.6667 24.6667 34.6667ZM34.2167 31.5667C33.8984 31.2595 33.4711 31.0913 33.0289 31.0991C32.5866 31.1069 32.1655 31.2901 31.8583 31.6083C31.5511 31.9266 31.3829 32.3539 31.3907 32.7961C31.3986 33.2384 31.5817 33.6595 31.9 33.9667L34.3 36.3333C34.609 36.6311 35.0209 36.7983 35.45 36.8C35.6733 36.8013 35.8946 36.7577 36.1008 36.6718C36.3069 36.5859 36.4937 36.4595 36.65 36.3C36.8062 36.1451 36.9302 35.9607 37.0148 35.7576C37.0994 35.5545 37.143 35.3367 37.143 35.1167C37.143 34.8966 37.0994 34.6788 37.0148 34.4757C36.9302 34.2726 36.8062 34.0883 36.65 33.9333L34.2167 31.5667ZM15.1167 31.5667L12.7167 33.8833C12.5605 34.0383 12.4365 34.2226 12.3518 34.4257C12.2672 34.6288 12.2237 34.8466 12.2237 35.0667C12.2237 35.2867 12.2672 35.5045 12.3518 35.7076C12.4365 35.9107 12.5605 36.0951 12.7167 36.25C12.873 36.4095 13.0598 36.5359 13.2659 36.6218C13.472 36.7077 13.6934 36.7513 13.9167 36.75C14.3275 36.7535 14.7252 36.6051 15.0333 36.3333L17.4333 34.0167C17.7516 33.7095 17.9348 33.2884 17.9426 32.8461C17.9504 32.4039 17.7822 31.9766 17.475 31.6583C17.1678 31.3401 16.7467 31.1569 16.3045 31.1491C15.8622 31.1413 15.4349 31.3095 15.1167 31.6167V31.5667ZM24.6667 18C23.3481 18 22.0592 18.391 20.9629 19.1235C19.8665 19.8561 19.0121 20.8973 18.5075 22.1154C18.0029 23.3336 17.8709 24.6741 18.1281 25.9673C18.3853 27.2605 19.0203 28.4484 19.9526 29.3807C20.885 30.3131 22.0729 30.948 23.3661 31.2052C24.6593 31.4625 25.9997 31.3304 27.2179 30.8259C28.4361 30.3213 29.4773 29.4668 30.2098 28.3705C30.9423 27.2741 31.3333 25.9852 31.3333 24.6667C31.3333 22.8986 30.631 21.2029 29.3807 19.9526C28.1305 18.7024 26.4348 18 24.6667 18Z" fill="#E0E0E0"/>
</svg>
