<svg width="48" height="48" viewBox="0 0 48 48" fill="none" xmlns="http://www.w3.org/2000/svg">
<path d="M4 30C4.53043 30 5.03914 30.2107 5.41421 30.5858C5.78929 30.9609 6 31.4696 6 32C6 32.5304 5.78929 33.0391 5.41421 33.4142C5.03914 33.7893 4.53043 34 4 34C3.46957 34 2.96086 33.7893 2.58579 33.4142C2.21071 33.0391 2 32.5304 2 32C2 31.4696 2.21071 30.9609 2.58579 30.5858C2.96086 30.2107 3.46957 30 4 30ZM42 34H38V18H34V14H46V18H42V34ZM32 14V18H28V22H32V26H28V30H32V34H24V14H32ZM22 14V34H18L12 22V34H8V14H12L18 26V14H22Z" fill="#E0E0E0"/>
</svg>
