<svg width="80" height="80" viewBox="0 0 80 80" fill="none" xmlns="http://www.w3.org/2000/svg">
<path d="M39.6193 7.65516C36.9806 7.66766 34.4618 7.89204 32.2443 8.28454C25.7131 9.43829 24.5281 11.8533 24.5281 16.3077V22.1895H39.9612V24.1502H18.7356C14.2506 24.1502 10.3231 26.8458 9.09432 31.9758C7.67682 37.8539 7.61432 41.5227 9.09432 47.6608C10.1912 52.2302 12.8112 55.4852 17.2968 55.4852H22.6037V48.4339C22.6037 43.3395 27.0106 38.8464 32.2449 38.8464H47.6606C51.9518 38.8464 55.3768 35.3127 55.3768 31.0039V16.3083C55.3768 12.1252 51.8481 8.98329 47.6606 8.28516C45.0081 7.84391 42.2574 7.64329 39.6193 7.65516ZM31.2731 12.3858C32.8668 12.3858 34.1693 13.7089 34.1693 15.3364C34.1693 16.957 32.8674 18.2677 31.2731 18.2677C29.6731 18.2677 28.3774 16.957 28.3774 15.3364C28.3768 13.7089 29.6731 12.3858 31.2731 12.3858Z" fill="url(#paint0_linear_561_1280)"/>
<path d="M57.3013 24.15V31.0038C57.3013 36.3163 52.7963 40.7882 47.66 40.7882H32.2444C28.0219 40.7882 24.5281 44.4025 24.5281 48.6313V63.3282C24.5281 67.51 28.1644 69.9707 32.2444 71.17C37.1294 72.6057 41.8144 72.8657 47.66 71.17C51.545 70.0444 55.3763 67.7807 55.3763 63.3282V57.4457H39.9613V55.4844H63.0938C67.5788 55.4844 69.2513 52.3563 70.8113 47.66C72.4225 42.8257 72.3531 38.1763 70.8113 31.975C69.7025 27.5094 67.5856 24.1494 63.0938 24.1494L57.3013 24.15ZM48.6306 61.3669C50.2313 61.3669 51.5269 62.6775 51.5269 64.2994C51.5269 65.9257 50.2306 67.2488 48.6306 67.2488C47.0369 67.2488 45.735 65.9257 45.735 64.2994C45.735 62.6775 47.0369 61.3669 48.6306 61.3669Z" fill="url(#paint1_linear_561_1280)"/>
<defs>
<linearGradient id="paint0_linear_561_1280" x1="6.46049" y1="9.4943" x2="42.0566" y2="39.8505" gradientUnits="userSpaceOnUse">
<stop stop-color="#5A9FD4"/>
<stop offset="1" stop-color="#306998"/>
</linearGradient>
<linearGradient id="paint1_linear_561_1280" x1="55.4493" y1="58.7203" x2="42.684" y2="40.8189" gradientUnits="userSpaceOnUse">
<stop stop-color="#FFD43B"/>
<stop offset="1" stop-color="#FFE873"/>
</linearGradient>
</defs>
</svg>
