<svg width="80" height="80" viewBox="0 0 80 80" fill="none" xmlns="http://www.w3.org/2000/svg">
<g clip-path="url(#clip0_561_1284)">
<path d="M40 56.4995C60.7 56.4995 77.5 50.0995 77.5 42.1995C77.5 34.2995 60.7 27.8995 40 27.8995C19.3 27.8995 2.5 34.2995 2.5 42.1995C2.5 50.0995 19.3 56.5495 40 56.5495V56.4995Z" stroke="#8AADF4" stroke-width="6.14886" stroke-linecap="round" stroke-linejoin="round"/>
<path d="M27.5999 49.3498C37.9499 67.3498 51.8999 78.6498 58.7499 74.6998C65.6 70.6998 62.7499 52.9998 52.3999 35.0498C42.0499 17.0998 28.0999 5.79977 21.2499 9.74977C14.3999 13.6998 17.2499 31.4498 27.5999 49.3498Z" stroke="#8AADF4" stroke-width="6.14886" stroke-linecap="round" stroke-linejoin="round"/>
<path d="M27.5999 35.0497C17.2499 52.9997 14.3999 70.7497 21.2499 74.6997C28.0999 78.6497 42.0499 67.2997 52.3999 49.3497C62.75 31.4497 65.6 13.6997 58.75 9.74967C51.9 5.74967 37.9499 17.0997 27.5999 35.0497Z" stroke="#8AADF4" stroke-width="6.14886" stroke-linecap="round" stroke-linejoin="round"/>
<path d="M42.5 42.1997C42.5 42.8627 42.2366 43.4986 41.7678 43.9675C41.2989 44.4363 40.663 44.6997 40 44.6997C39.337 44.6997 38.7011 44.4363 38.2322 43.9675C37.7634 43.4986 37.5 42.8627 37.5 42.1997C37.5 41.5367 37.7634 40.9008 38.2322 40.4319C38.7011 39.9631 39.337 39.6997 40 39.6997C40.663 39.6997 41.2989 39.9631 41.7678 40.4319C42.2366 40.9008 42.5 41.5367 42.5 42.1997Z" stroke="#8AADF4" stroke-width="6.14886" stroke-linecap="round" stroke-linejoin="round"/>
</g>
<defs>
<clipPath id="clip0_561_1284">
<rect width="80" height="80" fill="white"/>
</clipPath>
</defs>
</svg>
