<svg width="48" height="48" viewBox="0 0 48 48" fill="none" xmlns="http://www.w3.org/2000/svg">
<path d="M24 20.2202C26.06 20.2202 27.74 21.9002 27.74 24.0002C27.74 26.0002 26.06 27.7002 24 27.7002C21.94 27.7002 20.26 26.0002 20.26 24.0002C20.26 21.9002 21.94 20.2202 24 20.2202ZM14.74 40.0002C16 40.7602 18.76 39.6002 21.94 36.6002C20.9 35.4202 19.88 34.1402 18.92 32.8002C17.3084 32.6448 15.7062 32.4045 14.12 32.0802C13.1 36.3602 13.48 39.3002 14.74 40.0002ZM16.16 28.5202L15.58 27.5002C15.36 28.0802 15.14 28.6602 15 29.2202C15.54 29.3402 16.14 29.4402 16.76 29.5402L16.16 28.5202ZM29.24 27.0002L30.86 24.0002L29.24 21.0002C28.64 19.9402 28 19.0002 27.42 18.0602C26.34 18.0002 25.2 18.0002 24 18.0002C22.8 18.0002 21.66 18.0002 20.58 18.0602C20 19.0002 19.36 19.9402 18.76 21.0002L17.14 24.0002L18.76 27.0002C19.36 28.0602 20 29.0002 20.58 29.9402C21.66 30.0002 22.8 30.0002 24 30.0002C25.2 30.0002 26.34 30.0002 27.42 29.9402C28 29.0002 28.64 28.0602 29.24 27.0002ZM24 13.5602C23.62 14.0002 23.22 14.4602 22.82 15.0002H25.18C24.78 14.4602 24.38 14.0002 24 13.5602ZM24 34.4402C24.38 34.0002 24.78 33.5402 25.18 33.0002H22.82C23.22 33.5402 23.62 34.0002 24 34.4402ZM33.24 8.00018C32 7.24018 29.24 8.40018 26.06 11.4002C27.1 12.5802 28.12 13.8602 29.08 15.2002C30.72 15.3602 32.34 15.6002 33.88 15.9202C34.9 11.6402 34.52 8.70018 33.24 8.00018ZM31.84 19.4802L32.42 20.5002C32.64 19.9202 32.86 19.3402 33 18.7802C32.46 18.6602 31.86 18.5602 31.24 18.4602L31.84 19.4802ZM34.74 5.38018C37.68 7.06018 38 11.4802 36.76 16.6402C41.84 18.1402 45.5 20.6202 45.5 24.0002C45.5 27.3802 41.84 29.8602 36.76 31.3602C38 36.5202 37.68 40.9402 34.74 42.6202C31.82 44.3002 27.84 42.3802 24 38.7202C20.16 42.3802 16.18 44.3002 13.24 42.6202C10.32 40.9402 10 36.5202 11.24 31.3602C6.16 29.8602 2.5 27.3802 2.5 24.0002C2.5 20.6202 6.16 18.1402 11.24 16.6402C10 11.4802 10.32 7.06018 13.24 5.38018C16.18 3.70018 20.16 5.62018 24 9.28018C27.84 5.62018 31.82 3.70018 34.74 5.38018ZM34.16 24.0002C34.84 25.5002 35.44 27.0002 35.94 28.5202C40.14 27.2602 42.5 25.4602 42.5 24.0002C42.5 22.5402 40.14 20.7402 35.94 19.4802C35.44 21.0002 34.84 22.5002 34.16 24.0002ZM13.84 24.0002C13.16 22.5002 12.56 21.0002 12.06 19.4802C7.86 20.7402 5.5 22.5402 5.5 24.0002C5.5 25.4602 7.86 27.2602 12.06 28.5202C12.56 27.0002 13.16 25.5002 13.84 24.0002ZM31.84 28.5202L31.24 29.5402C31.86 29.4402 32.46 29.3402 33 29.2202C32.86 28.6602 32.64 28.0802 32.42 27.5002L31.84 28.5202ZM26.06 36.6002C29.24 39.6002 32 40.7602 33.24 40.0002C34.52 39.3002 34.9 36.3602 33.88 32.0802C32.34 32.4002 30.72 32.6402 29.08 32.8002C28.12 34.1402 27.1 35.4202 26.06 36.6002ZM16.16 19.4802L16.76 18.4602C16.14 18.5602 15.54 18.6602 15 18.7802C15.14 19.3402 15.36 19.9202 15.58 20.5002L16.16 19.4802ZM21.94 11.4002C18.76 8.40018 16 7.24018 14.74 8.00018C13.48 8.70018 13.1 11.6402 14.12 15.9202C15.7062 15.5959 17.3084 15.3555 18.92 15.2002C19.88 13.8602 20.9 12.5802 21.94 11.4002Z" fill="#E0E0E0"/>
</svg>
