<svg width="36" height="36" viewBox="0 0 36 36" fill="none" xmlns="http://www.w3.org/2000/svg" style="fill: currentColor;">
<path d="M16.1973 1.75151C16.9237 0.239812 19.0763 0.239813 19.8027 1.75151L24.1873 10.8762C24.384 11.2857 24.7143 11.616 25.1238 11.8127L34.2485 16.1973C35.7602 16.9237 35.7602 19.0763 34.2485 19.8027L25.1238 24.1873C24.7143 24.384 24.384 24.7143 24.1873 25.1238L19.8027 34.2485C19.0763 35.7602 16.9237 35.7602 16.1973 34.2485L11.8127 25.1238C11.616 24.7143 11.2857 24.384 10.8762 24.1873L1.75151 19.8027C0.239812 19.0763 0.239813 16.9237 1.75151 16.1973L10.8762 11.8127C11.2857 11.616 11.616 11.2857 11.8127 10.8762L16.1973 1.75151Z" fill="white"/>
</svg>
