<svg width="48" height="49" viewBox="0 0 48 49" fill="none" xmlns="http://www.w3.org/2000/svg">
<path d="M24 4.25C12.96 4.25 4 13.21 4 24.25C4 35.29 12.96 44.25 24 44.25C35.04 44.25 44 35.29 44 24.25C44 13.21 35.04 4.25 24 4.25ZM33.28 17.85C32.98 21.01 31.68 28.69 31.02 32.23C30.74 33.73 30.18 34.23 29.66 34.29C28.5 34.39 27.62 33.53 26.5 32.79C24.74 31.63 23.74 30.91 22.04 29.79C20.06 28.49 21.34 27.77 22.48 26.61C22.78 26.31 27.9 21.65 28 21.23C28.0139 21.1664 28.012 21.1003 27.9946 21.0376C27.9772 20.9749 27.9447 20.9173 27.9 20.87C27.78 20.77 27.62 20.81 27.48 20.83C27.3 20.87 24.5 22.73 19.04 26.41C18.24 26.95 17.52 27.23 16.88 27.21C16.16 27.19 14.8 26.81 13.78 26.47C12.52 26.07 11.54 25.85 11.62 25.15C11.66 24.79 12.16 24.43 13.1 24.05C18.94 21.51 22.82 19.83 24.76 19.03C30.32 16.71 31.46 16.31 32.22 16.31C32.38 16.31 32.76 16.35 33 16.55C33.2 16.71 33.26 16.93 33.28 17.09C33.26 17.21 33.3 17.57 33.28 17.85Z" fill="#E0E0E0"/>
</svg>
